<svg width="64" height="39" viewBox="0 0 64 39" fill="none" xmlns="http://www.w3.org/2000/svg">
<path d="M38.5722 8.38747L32.1009 0.642822L25.6318 8.38546L32.1161 14.1518L38.5722 8.38747Z" fill="#FFD631"/>
<path d="M34.2168 16.0218L39.8908 21.0698L54.1592 8.38546L47.6641 0.610718H35.7788L42.4863 8.64027L34.2168 16.0218Z" fill="#FFD631"/>
<path d="M24.3207 21.114L30.0163 16.0258L21.7144 8.64027L28.424 0.610718H16.5625L10.0674 8.38747L24.3207 21.114Z" fill="#FFD631"/>
<path d="M37.7877 22.9378L32.1201 17.8978L26.418 22.988L32.0638 28.026L37.7877 22.9378Z" fill="#FFD631"/>
<path d="M56.5928 0.610718H51.3694L58.079 8.64228L32.1462 31.6916L6.15281 8.64027L12.8581 0.610718H6.45828L0 8.59814L32.2372 38.7481L64 8.59814L56.5928 0.610718Z" fill="#FFD631"/>
</svg>
