<svg width="371" height="171" viewBox="0 0 371 171" fill="none" xmlns="http://www.w3.org/2000/svg">
<path d="M78.2912 159.605H87.3632V163.115H78.2912V159.605ZM78.6152 170H74.2412V151.1H88.5242V154.61H78.6152V170Z" fill="white"/>
<path d="M91.1884 170V155.474H95.4004V170H91.1884ZM93.2943 153.449C92.5203 153.449 91.8904 153.224 91.4044 152.774C90.9184 152.324 90.6754 151.766 90.6754 151.1C90.6754 150.434 90.9184 149.876 91.4044 149.426C91.8904 148.976 92.5203 148.751 93.2943 148.751C94.0683 148.751 94.6984 148.967 95.1844 149.399C95.6704 149.813 95.9134 150.353 95.9134 151.019C95.9134 151.721 95.6704 152.306 95.1844 152.774C94.7164 153.224 94.0863 153.449 93.2943 153.449Z" fill="white"/>
<path d="M108.138 155.258C109.29 155.258 110.316 155.492 111.216 155.96C112.134 156.41 112.854 157.112 113.376 158.066C113.898 159.002 114.159 160.208 114.159 161.684V170H109.947V162.332C109.947 161.162 109.686 160.298 109.164 159.74C108.66 159.182 107.94 158.903 107.004 158.903C106.338 158.903 105.735 159.047 105.195 159.335C104.673 159.605 104.259 160.028 103.953 160.604C103.665 161.18 103.521 161.918 103.521 162.818V170H99.3094V155.474H103.332V159.497L102.576 158.282C103.098 157.31 103.845 156.563 104.817 156.041C105.789 155.519 106.896 155.258 108.138 155.258Z" fill="white"/>
<path d="M126.887 170V167.165L126.617 166.544V161.468C126.617 160.568 126.338 159.866 125.78 159.362C125.24 158.858 124.403 158.606 123.269 158.606C122.495 158.606 121.73 158.732 120.974 158.984C120.236 159.218 119.606 159.542 119.084 159.956L117.572 157.013C118.364 156.455 119.318 156.023 120.434 155.717C121.55 155.411 122.684 155.258 123.836 155.258C126.05 155.258 127.769 155.78 128.993 156.824C130.217 157.868 130.829 159.497 130.829 161.711V170H126.887ZM122.459 170.216C121.325 170.216 120.353 170.027 119.543 169.649C118.733 169.253 118.112 168.722 117.68 168.056C117.248 167.39 117.032 166.643 117.032 165.815C117.032 164.951 117.239 164.195 117.653 163.547C118.085 162.899 118.76 162.395 119.678 162.035C120.596 161.657 121.793 161.468 123.269 161.468H127.13V163.925H123.728C122.738 163.925 122.054 164.087 121.676 164.411C121.316 164.735 121.136 165.14 121.136 165.626C121.136 166.166 121.343 166.598 121.757 166.922C122.189 167.228 122.774 167.381 123.512 167.381C124.214 167.381 124.844 167.219 125.402 166.895C125.96 166.553 126.365 166.058 126.617 165.41L127.265 167.354C126.959 168.29 126.401 169.001 125.591 169.487C124.781 169.973 123.737 170.216 122.459 170.216Z" fill="white"/>
<path d="M143.47 155.258C144.622 155.258 145.648 155.492 146.548 155.96C147.466 156.41 148.186 157.112 148.708 158.066C149.23 159.002 149.491 160.208 149.491 161.684V170H145.279V162.332C145.279 161.162 145.018 160.298 144.496 159.74C143.992 159.182 143.272 158.903 142.336 158.903C141.67 158.903 141.067 159.047 140.527 159.335C140.005 159.605 139.591 160.028 139.285 160.604C138.997 161.18 138.853 161.918 138.853 162.818V170H134.641V155.474H138.664V159.497L137.908 158.282C138.43 157.31 139.177 156.563 140.149 156.041C141.121 155.519 142.228 155.258 143.47 155.258Z" fill="white"/>
<path d="M160.435 170.216C158.869 170.216 157.474 169.901 156.25 169.271C155.026 168.623 154.063 167.732 153.361 166.598C152.677 165.464 152.335 164.177 152.335 162.737C152.335 161.279 152.677 159.992 153.361 158.876C154.063 157.742 155.026 156.86 156.25 156.23C157.474 155.582 158.869 155.258 160.435 155.258C161.965 155.258 163.297 155.582 164.431 156.23C165.565 156.86 166.402 157.769 166.942 158.957L163.675 160.712C163.297 160.028 162.82 159.524 162.244 159.2C161.686 158.876 161.074 158.714 160.408 158.714C159.688 158.714 159.04 158.876 158.464 159.2C157.888 159.524 157.429 159.983 157.087 160.577C156.763 161.171 156.601 161.891 156.601 162.737C156.601 163.583 156.763 164.303 157.087 164.897C157.429 165.491 157.888 165.95 158.464 166.274C159.04 166.598 159.688 166.76 160.408 166.76C161.074 166.76 161.686 166.607 162.244 166.301C162.82 165.977 163.297 165.464 163.675 164.762L166.942 166.544C166.402 167.714 165.565 168.623 164.431 169.271C163.297 169.901 161.965 170.216 160.435 170.216Z" fill="white"/>
<path d="M176.391 170.216C174.735 170.216 173.277 169.892 172.017 169.244C170.775 168.596 169.812 167.714 169.128 166.598C168.444 165.464 168.102 164.177 168.102 162.737C168.102 161.279 168.435 159.992 169.101 158.876C169.785 157.742 170.712 156.86 171.882 156.23C173.052 155.582 174.375 155.258 175.851 155.258C177.273 155.258 178.551 155.564 179.685 156.176C180.837 156.77 181.746 157.634 182.412 158.768C183.078 159.884 183.411 161.225 183.411 162.791C183.411 162.953 183.402 163.142 183.384 163.358C183.366 163.556 183.348 163.745 183.33 163.925H171.531V161.468H181.116L179.496 162.197C179.496 161.441 179.343 160.784 179.037 160.226C178.731 159.668 178.308 159.236 177.768 158.93C177.228 158.606 176.598 158.444 175.878 158.444C175.158 158.444 174.519 158.606 173.961 158.93C173.421 159.236 172.998 159.677 172.692 160.253C172.386 160.811 172.233 161.477 172.233 162.251V162.899C172.233 163.691 172.404 164.393 172.746 165.005C173.106 165.599 173.601 166.058 174.231 166.382C174.879 166.688 175.635 166.841 176.499 166.841C177.273 166.841 177.948 166.724 178.524 166.49C179.118 166.256 179.658 165.905 180.144 165.437L182.385 167.867C181.719 168.623 180.882 169.208 179.874 169.622C178.866 170.018 177.705 170.216 176.391 170.216Z" fill="white"/>
<path d="M191.103 170.216C189.861 170.216 188.664 170.072 187.512 169.784C186.378 169.478 185.478 169.1 184.812 168.65L186.216 165.626C186.882 166.04 187.665 166.382 188.565 166.652C189.483 166.904 190.383 167.03 191.265 167.03C192.237 167.03 192.921 166.913 193.317 166.679C193.731 166.445 193.938 166.121 193.938 165.707C193.938 165.365 193.776 165.113 193.452 164.951C193.146 164.771 192.732 164.636 192.21 164.546C191.688 164.456 191.112 164.366 190.482 164.276C189.87 164.186 189.249 164.069 188.619 163.925C187.989 163.763 187.413 163.529 186.891 163.223C186.369 162.917 185.946 162.503 185.622 161.981C185.316 161.459 185.163 160.784 185.163 159.956C185.163 159.038 185.424 158.228 185.946 157.526C186.486 156.824 187.26 156.275 188.268 155.879C189.276 155.465 190.482 155.258 191.886 155.258C192.876 155.258 193.884 155.366 194.91 155.582C195.936 155.798 196.791 156.113 197.475 156.527L196.071 159.524C195.369 159.11 194.658 158.831 193.938 158.687C193.236 158.525 192.552 158.444 191.886 158.444C190.95 158.444 190.266 158.57 189.834 158.822C189.402 159.074 189.186 159.398 189.186 159.794C189.186 160.154 189.339 160.424 189.645 160.604C189.969 160.784 190.392 160.928 190.914 161.036C191.436 161.144 192.003 161.243 192.615 161.333C193.245 161.405 193.875 161.522 194.505 161.684C195.135 161.846 195.702 162.08 196.206 162.386C196.728 162.674 197.151 163.079 197.475 163.601C197.799 164.105 197.961 164.771 197.961 165.599C197.961 166.499 197.691 167.3 197.151 168.002C196.611 168.686 195.828 169.226 194.802 169.622C193.794 170.018 192.561 170.216 191.103 170.216Z" fill="white"/>
<path d="M208.719 170V155.15C208.719 153.512 209.205 152.207 210.177 151.235C211.149 150.245 212.535 149.75 214.335 149.75C214.947 149.75 215.532 149.813 216.09 149.939C216.666 150.065 217.152 150.263 217.548 150.533L216.441 153.584C216.207 153.422 215.946 153.296 215.658 153.206C215.37 153.116 215.064 153.071 214.74 153.071C214.128 153.071 213.651 153.251 213.309 153.611C212.985 153.953 212.823 154.475 212.823 155.177V156.527L212.931 158.336V170H208.719ZM206.478 159.038V155.798H216.549V159.038H206.478Z" fill="white"/>
<path d="M225.375 170.216C223.827 170.216 222.45 169.892 221.244 169.244C220.056 168.596 219.111 167.714 218.409 166.598C217.725 165.464 217.383 164.177 217.383 162.737C217.383 161.279 217.725 159.992 218.409 158.876C219.111 157.742 220.056 156.86 221.244 156.23C222.45 155.582 223.827 155.258 225.375 155.258C226.905 155.258 228.273 155.582 229.479 156.23C230.685 156.86 231.63 157.733 232.314 158.849C232.998 159.965 233.34 161.261 233.34 162.737C233.34 164.177 232.998 165.464 232.314 166.598C231.63 167.714 230.685 168.596 229.479 169.244C228.273 169.892 226.905 170.216 225.375 170.216ZM225.375 166.76C226.077 166.76 226.707 166.598 227.265 166.274C227.823 165.95 228.264 165.491 228.588 164.897C228.912 164.285 229.074 163.565 229.074 162.737C229.074 161.891 228.912 161.171 228.588 160.577C228.264 159.983 227.823 159.524 227.265 159.2C226.707 158.876 226.077 158.714 225.375 158.714C224.673 158.714 224.043 158.876 223.485 159.2C222.927 159.524 222.477 159.983 222.135 160.577C221.811 161.171 221.649 161.891 221.649 162.737C221.649 163.565 221.811 164.285 222.135 164.897C222.477 165.491 222.927 165.95 223.485 166.274C224.043 166.598 224.673 166.76 225.375 166.76Z" fill="white"/>
<path d="M236.155 170V155.474H240.178V159.578L239.611 158.39C240.043 157.364 240.736 156.59 241.69 156.068C242.644 155.528 243.805 155.258 245.173 155.258V159.146C244.993 159.128 244.831 159.119 244.687 159.119C244.543 159.101 244.39 159.092 244.228 159.092C243.076 159.092 242.14 159.425 241.42 160.091C240.718 160.739 240.367 161.756 240.367 163.142V170H236.155Z" fill="white"/>
<path d="M255.43 170V149.966H259.642V170H255.43Z" fill="white"/>
<path d="M263.551 170V155.474H267.763V170H263.551ZM265.657 153.449C264.883 153.449 264.253 153.224 263.767 152.774C263.281 152.324 263.038 151.766 263.038 151.1C263.038 150.434 263.281 149.876 263.767 149.426C264.253 148.976 264.883 148.751 265.657 148.751C266.431 148.751 267.061 148.967 267.547 149.399C268.033 149.813 268.276 150.353 268.276 151.019C268.276 151.721 268.033 152.306 267.547 152.774C267.079 153.224 266.449 153.449 265.657 153.449Z" fill="white"/>
<path d="M272.185 170V155.15C272.185 153.512 272.671 152.207 273.643 151.235C274.615 150.245 276.001 149.75 277.801 149.75C278.413 149.75 278.998 149.813 279.556 149.939C280.132 150.065 280.618 150.263 281.014 150.533L279.907 153.584C279.673 153.422 279.412 153.296 279.124 153.206C278.836 153.116 278.53 153.071 278.206 153.071C277.594 153.071 277.117 153.251 276.775 153.611C276.451 153.953 276.289 154.475 276.289 155.177V156.527L276.397 158.336V170H272.185ZM269.944 159.038V155.798H280.015V159.038H269.944Z" fill="white"/>
<path d="M289.138 170.216C287.482 170.216 286.024 169.892 284.764 169.244C283.522 168.596 282.559 167.714 281.875 166.598C281.191 165.464 280.849 164.177 280.849 162.737C280.849 161.279 281.182 159.992 281.848 158.876C282.532 157.742 283.459 156.86 284.629 156.23C285.799 155.582 287.122 155.258 288.598 155.258C290.02 155.258 291.298 155.564 292.432 156.176C293.584 156.77 294.493 157.634 295.159 158.768C295.825 159.884 296.158 161.225 296.158 162.791C296.158 162.953 296.149 163.142 296.131 163.358C296.113 163.556 296.095 163.745 296.077 163.925H284.278V161.468H293.863L292.243 162.197C292.243 161.441 292.09 160.784 291.784 160.226C291.478 159.668 291.055 159.236 290.515 158.93C289.975 158.606 289.345 158.444 288.625 158.444C287.905 158.444 287.266 158.606 286.708 158.93C286.168 159.236 285.745 159.677 285.439 160.253C285.133 160.811 284.98 161.477 284.98 162.251V162.899C284.98 163.691 285.151 164.393 285.493 165.005C285.853 165.599 286.348 166.058 286.978 166.382C287.626 166.688 288.382 166.841 289.246 166.841C290.02 166.841 290.695 166.724 291.271 166.49C291.865 166.256 292.405 165.905 292.891 165.437L295.132 167.867C294.466 168.623 293.629 169.208 292.621 169.622C291.613 170.018 290.452 170.216 289.138 170.216Z" fill="white"/>
<path d="M198.447 17.076L185.286 0.0704956L172.129 17.0716L185.316 29.7332L198.447 17.076Z" fill="#FFD631"/>
<path d="M189.591 33.8392L201.13 44.9236L230.149 17.0716L216.94 0H192.768L206.409 17.6311L189.591 33.8392Z" fill="#FFD631"/>
<path d="M169.463 45.0205L181.047 33.848L164.163 17.6311L177.809 0H153.685L140.476 17.076L169.463 45.0205Z" fill="#FFD631"/>
<path d="M196.852 49.0252L185.325 37.9584L173.729 49.1353L185.211 60.1977L196.852 49.0252Z" fill="#FFD631"/>
<path d="M235.097 0H224.474L238.119 17.6355L185.378 68.2467L132.513 17.6311L146.15 0H133.135L120 17.5386L185.563 83.7411L250.161 17.5386L235.097 0Z" fill="#FFD631"/>
<path d="M6.07604 130.237V135.348H0V107.8H20.8322V112.871H6.07604V119.039H19.1094V124.378H6.07604V130.237Z" fill="white"/>
<path d="M26.4365 107.936H32.7064V135.37H26.4365V107.936Z" fill="white"/>
<path d="M44.8635 116.404V135.388H39.3867V107.84H46.5863L59.3376 124.973V107.84H64.6558V135.388H59.3376L44.8635 116.404Z" fill="white"/>
<path d="M68.8594 135.348L81.8134 107.936H88.1229L100.901 135.348H94.807L92.0091 129.277H77.5747L74.5741 135.348H68.8594ZM85.0387 113.1L80.2404 123.704H89.718L85.0783 113.1H85.0387Z" fill="white"/>
<path d="M110.766 116.404V135.388H105.307V107.84H112.502L125.28 124.973V107.84H130.554V135.388H125.24L110.766 116.404Z" fill="white"/>
<path d="M150.434 135.423C142.437 135.423 135.96 129.202 135.96 121.514C135.96 113.906 142.437 107.606 150.434 107.606C152.966 107.587 155.459 108.235 157.662 109.483C159.865 110.731 161.701 112.536 162.987 114.717C160.546 115.946 160.343 116.06 157.629 117.329C156.872 116.106 155.812 115.098 154.552 114.403C153.291 113.709 151.873 113.351 150.434 113.364C145.755 113.364 141.957 117.056 141.957 121.51C141.957 125.964 145.755 129.656 150.434 129.656C151.942 129.681 153.429 129.297 154.738 128.547C156.046 127.796 157.127 126.706 157.867 125.391C160.586 126.735 160.665 126.889 163.225 128.004C161.96 130.279 160.104 132.169 157.852 133.475C155.6 134.782 153.037 135.454 150.434 135.423V135.423Z" fill="white"/>
<path d="M169.107 107.936H175.386V135.37H169.107V107.936Z" fill="white"/>
<path d="M179.906 135.348L192.86 107.936H199.157L211.934 135.348H205.854L203.052 129.277H188.622L185.621 135.348H179.906ZM196.099 113.1L191.3 123.704H200.774L196.138 113.1H196.099Z" fill="white"/>
<path d="M216.292 135.154V107.8H222.461V130.083H237.098V135.154H216.292Z" fill="white"/>
<path d="M255.04 135.348L267.994 107.936H274.312L287.068 135.33H280.988L278.19 129.259H263.76L260.759 135.33L255.04 135.348ZM271.233 113.1L266.439 123.704H275.912L271.272 113.1H271.233Z" fill="white"/>
<path d="M299.026 120.977L289.831 107.936H297.105L302.701 116.677L308.499 107.936H315.377L306.226 121.017L316.184 135.348H308.693L302.701 125.933L296.092 135.348H289.042L299.026 120.977Z" fill="white"/>
<path d="M326.137 130.237H342.25V135.308H320.061V107.8H340.888V112.871H326.137V119.039H339.17V124.378H326.137V130.237Z" fill="white"/>
<path d="M353.049 127.202C353.688 130.815 357.046 131.312 359.368 131.312C361.571 131.312 364.924 130.7 364.924 127.894C364.924 122.052 347.934 125.819 347.934 115.558C347.934 109.91 353.45 107.258 358.605 107.258C364.562 107.258 370.061 109.756 370.061 116.096L363.946 115.254C363.188 112.065 360.267 111.95 358.31 111.95C356.354 111.95 353.992 112.756 353.992 115.06C353.992 117.096 355.349 117.558 362.509 119.21C364.629 119.708 370.982 120.973 370.982 127.202C370.982 132.238 366.907 136.013 359.086 136.013C352.688 136.013 346.934 133.017 346.934 126.255L353.049 127.202Z" fill="white"/>
</svg>
