<?xml version="1.0" encoding="UTF-8"?>
<svg id="Capa_2" data-name="Capa 2" xmlns="http://www.w3.org/2000/svg" viewBox="0 0 888.69 334.83">
  <defs>
    <style>
      .cls-1 {
        fill: #002859;
      }
    </style>
  </defs>
  <g id="Capa_1-2" data-name="Capa 1">
    <g>
      <path class="cls-1" d="M0,215.27L99.28,5.3h48.41l97.74,209.97h-46.57l-21.45-46.53H66.8l-22.98,46.53H0ZM124.09,44.76l-36.77,81.28h72.61L124.4,44.76h-.31Z"/>
      <path class="cls-1" d="M337.09,105.13L266.61,5h55.77l42.89,67.15L409.7,5h52.7l-70.16,100.42,76.29,109.85h-57.3l-45.96-72.15-50.55,72.15h-54.24l76.61-110.14Z"/>
      <path class="cls-1" d="M544.86,176.1h123.49v38.87h-170.06V4.12h159.63V42.99h-113.07v47.41h99.89v40.93h-99.89v44.76Z"/>
      <path class="cls-1" d="M751.11,152.84c4.9,27.68,30.64,31.51,48.41,31.51,16.86,0,42.59-4.71,42.59-26.21,0-44.76-130.22-15.9-130.22-94.53,0-43.29,42.28-63.61,81.81-63.61,45.65,0,87.64,19.14,87.64,67.73l-46.57-6.48c-5.82-24.44-28.19-25.33-43.2-25.33s-33.09,6.18-33.09,23.86c0,15.61,10.41,19.14,65.26,31.8,16.24,3.83,64.96,13.55,64.96,61.26,0,38.58-31.26,67.44-91,67.44-49.03,0-93.15-22.97-93.15-74.8l46.57,7.36Z"/>
      <g>
        <path class="cls-1" d="M7.52,333.49v-78.79h15.91v78.79H7.52Z"/>
        <path class="cls-1" d="M38.75,333.49v-78.79h15.48l32.25,52.62v-52.62h14.78v78.79h-15.96l-31.76-51.38v51.38h-14.78Z"/>
        <path class="cls-1" d="M135.81,333.49v-65.46h-23.38v-13.33h62.61v13.33h-23.33v65.46h-15.91Z"/>
        <path class="cls-1" d="M185.31,333.49v-78.79h58.42v13.33h-42.51v17.47h39.56v13.28h-39.56v21.44h44.02v13.28h-59.93Z"/>
        <path class="cls-1" d="M258.78,333.49v-78.79h33.48c8.42,0,14.54,.71,18.35,2.12,3.82,1.42,6.87,3.93,9.16,7.55s3.44,7.76,3.44,12.42c0,5.91-1.74,10.79-5.21,14.65-3.48,3.85-8.67,6.28-15.59,7.28,3.44,2.01,6.28,4.21,8.52,6.61,2.24,2.4,5.26,6.67,9.06,12.79l9.62,15.37h-19.03l-11.5-17.14c-4.08-6.13-6.88-9.99-8.38-11.58-1.5-1.59-3.1-2.69-4.78-3.28-1.68-.59-4.35-.89-8.01-.89h-3.22v32.89h-15.91Zm15.91-45.47h11.77c7.63,0,12.4-.32,14.3-.97s3.39-1.75,4.46-3.33c1.08-1.58,1.61-3.55,1.61-5.91,0-2.65-.71-4.79-2.12-6.42-1.42-1.63-3.41-2.66-5.99-3.09-1.29-.18-5.16-.27-11.61-.27h-12.42v19.99Z"/>
        <path class="cls-1" d="M338.38,333.49v-78.79h15.48l32.25,52.62v-52.62h14.78v78.79h-15.96l-31.76-51.38v51.38h-14.78Z"/>
        <path class="cls-1" d="M488.76,333.49h-17.31l-6.88-17.9h-31.5l-6.5,17.9h-16.88l30.69-78.79h16.82l31.55,78.79Zm-29.29-31.17l-10.86-29.24-10.64,29.24h21.5Z"/>
        <path class="cls-1" d="M506.77,333.49v-65.46h-23.38v-13.33h62.61v13.33h-23.33v65.46h-15.91Z"/>
        <path class="cls-1" d="M555.79,333.49v-78.79h15.91v78.79h-15.91Z"/>
        <path class="cls-1" d="M583.63,294.58c0-8.03,1.2-14.76,3.6-20.21,1.79-4.01,4.24-7.61,7.34-10.8,3.1-3.19,6.49-5.55,10.18-7.09,4.91-2.08,10.57-3.12,16.98-3.12,11.61,0,20.9,3.6,27.87,10.8,6.97,7.2,10.45,17.22,10.45,30.04s-3.46,22.67-10.37,29.86c-6.92,7.18-16.16,10.78-27.73,10.78s-21.03-3.57-27.95-10.72-10.37-16.99-10.37-29.53Zm16.39-.54c0,8.92,2.06,15.69,6.18,20.29,4.12,4.6,9.35,6.91,15.69,6.91s11.55-2.28,15.61-6.85c4.07-4.57,6.1-11.42,6.1-20.56s-1.98-15.77-5.94-20.21c-3.96-4.44-9.22-6.66-15.77-6.66s-11.84,2.25-15.86,6.75c-4.01,4.5-6.02,11.28-6.02,20.34Z"/>
        <path class="cls-1" d="M672.63,333.49v-78.79h15.48l32.25,52.62v-52.62h14.78v78.79h-15.96l-31.76-51.38v51.38h-14.78Z"/>
        <path class="cls-1" d="M823.01,333.49h-17.31l-6.88-17.9h-31.5l-6.5,17.9h-16.88l30.69-78.79h16.82l31.55,78.79Zm-29.29-31.17l-10.86-29.24-10.64,29.24h21.5Z"/>
        <path class="cls-1" d="M831.88,333.49v-78.15h15.91v64.87h39.56v13.28h-55.47Z"/>
      </g>
    </g>
  </g>
</svg>