<?xml version="1.0" encoding="UTF-8"?>
<svg id="Capa_2" data-name="Capa 2" xmlns="http://www.w3.org/2000/svg" viewBox="0 0 595.58 185.81">
  <defs>
    <style>
      .cls-1 {
        fill: #0d1928;
      }

      .cls-2 {
        fill: #d6a555;
      }
    </style>
  </defs>
  <g id="Capa_1-2" data-name="Capa 1">
    <g id="Grupo_41" data-name="Grupo 41">
      <g id="Grupo_39" data-name="Grupo 39">
        <g id="Grupo_38" data-name="Grupo 38">
          <g id="Grupo_35" data-name="Grupo 35">
            <path id="Trazado_48" data-name="Trazado 48" class="cls-2" d="M181.7,120.15c-15.05,49.04-67,76.6-116.04,61.55C16.62,166.66-10.94,114.7,4.11,65.66,19.16,16.62,71.11-10.94,120.15,4.11c10.89,3.34,21.07,8.65,30.03,15.68L39.7,54.73C11.95,63.34-3.55,92.81,5.06,120.56c8.61,27.74,38.09,43.25,65.83,34.63,.17-.05,.35-.11,.52-.16l110.29-34.87Z"/>
          </g>
          <g id="Grupo_36" data-name="Grupo 36">
            <path id="Trazado_49" data-name="Trazado 49" class="cls-2" d="M219.05,72.34l-6.81,8.47-5.41,6.74-1.45-4.57-19.68,6.22-8.58,2.71-125.01,39.53c-4.96-.79-9.56-3.09-13.17-6.58l-.24-.23,145.47-45.99,.49-.16,2.15-.68,15.37-4.86-1.94-6.1,11.03,3.22,7.77,2.26Z"/>
          </g>
          <g id="Grupo_37" data-name="Grupo 37">
            <path id="Trazado_50" data-name="Trazado 50" class="cls-2" d="M175.72,52.14l-98.3,31.09-47.05,14.89h0c.93-4.99,3.37-9.57,7.01-13.11l125.09-39.55c5,.81,9.63,3.14,13.26,6.68Z"/>
          </g>
        </g>
      </g>
      <g id="Grupo_40" data-name="Grupo 40">
        <path id="Trazado_51" data-name="Trazado 51" class="cls-1" d="M256.09,55.08V27.69h38.99v6.44h-31.01v4.23h31v5.93h-31v4.35h31v6.44h-38.98Z"/>
        <path id="Trazado_52" data-name="Trazado 52" class="cls-1" d="M345.81,55.82l-35.61-17.34v16.61h-7.99V26.95l35.65,17.38V27.69h7.95v28.13Z"/>
        <path id="Trazado_53" data-name="Trazado 53" class="cls-1" d="M368.28,55.08v-20.41h-16.98v-6.98h41.91v6.98h-16.94v20.41h-7.98Z"/>
        <path id="Trazado_54" data-name="Trazado 54" class="cls-1" d="M441.96,38.48c.43,4.32-2.39,8.29-6.61,9.31l5.14,7.3h-9.18l-4.15-6.56h-20.47v6.56h-7.99V27.69h30.31c8.63,0,12.94,3.53,12.94,10.59v.2Zm-35.27-3.8v7.45h22.39c1.33,.12,2.66-.18,3.8-.85,.78-.66,1.2-1.66,1.11-2.68v-.19c.09-1.06-.33-2.11-1.13-2.81-1.13-.71-2.46-1.03-3.78-.91h-22.39Z"/>
        <path id="Trazado_55" data-name="Trazado 55" class="cls-1" d="M492.89,27.69l-21.55,20.72v6.67h-7.99v-6.67l-21.59-20.72h10.52l15.06,14.55,15.06-14.55h10.49Z"/>
        <path id="Trazado_56" data-name="Trazado 56" class="cls-1" d="M256.09,101.63v-27.39h32.04c2.97-.23,5.94,.38,8.58,1.76,1.81,1.29,2.81,3.43,2.63,5.65v.19c.24,2.75-1.47,5.29-4.11,6.09,2.61,.74,4.33,3.23,4.11,5.93v.19c.18,2.24-.81,4.41-2.61,5.75-2.64,1.41-5.62,2.04-8.6,1.8l-32.03,.02Zm4.23-15.75h28.7c1.56,.09,3.11-.24,4.49-.97,.95-.62,1.49-1.7,1.42-2.83v-.16c.1-1.17-.46-2.3-1.46-2.93-1.62-.71-3.39-1.01-5.15-.87h-28.02v7.76Zm.01,11.87h28c1.77,.14,3.54-.17,5.15-.91,1.01-.67,1.57-1.84,1.46-3.05v-.15c0-2.64-1.97-3.96-5.91-3.96h-28.71v8.07Z"/>
        <path id="Trazado_57" data-name="Trazado 57" class="cls-1" d="M322.65,101.63c-6.33,0-10.93-1.36-13.81-4.07-2.88-2.72-4.32-7.09-4.32-13.11v-10.19h4.23v10.16c-.37,3.72,.76,7.43,3.15,10.3,2.1,2.03,5.66,3.05,10.68,3.05h7.64c3.9,.37,7.8-.73,10.93-3.08,2.46-2.82,3.65-6.53,3.28-10.26v-10.16h4.18v10.19c0,6-1.49,10.37-4.48,13.09-2.98,2.73-7.66,4.09-14.04,4.09h-7.44Z"/>
        <path id="Trazado_58" data-name="Trazado 58" class="cls-1" d="M354.53,101.63v-3.88h31.58c3.58,0,5.38-1.39,5.38-4.18,.09-1.14-.39-2.24-1.29-2.95-1.24-.72-2.66-1.04-4.09-.93h-23.01c-2.43,.2-4.84-.53-6.74-2.06-1.49-1.47-2.28-3.5-2.17-5.59-.11-2.12,.68-4.19,2.17-5.7,1.89-1.55,4.31-2.3,6.74-2.09h31.42v3.88h-31.08c-1.33-.11-2.65,.23-3.77,.97-.85,.77-1.29,1.89-1.19,3.03-.1,1.09,.34,2.16,1.17,2.87,1.14,.69,2.46,1,3.78,.89h23.16c2.49-.21,4.97,.53,6.93,2.07,1.52,1.49,2.32,3.56,2.21,5.68,.11,2.17-.69,4.29-2.21,5.84-1.94,1.6-4.43,2.37-6.93,2.15h-32.07Z"/>
        <path id="Trazado_59" data-name="Trazado 59" class="cls-1" d="M401.62,101.63v-27.39h4.23v27.39h-4.23Z"/>
        <path id="Trazado_60" data-name="Trazado 60" class="cls-1" d="M456.59,102.3l-39.37-22.04v21.38h-4.23v-28.06l39.41,22v-21.34h4.18v28.06Z"/>
        <path id="Trazado_61" data-name="Trazado 61" class="cls-1" d="M463.74,101.63v-27.39h38.99v3.88h-34.75v7.76h34.75v3.8h-34.75v8.07h34.75v3.88h-38.99Z"/>
        <path id="Trazado_62" data-name="Trazado 62" class="cls-1" d="M508.94,101.63v-3.88h31.58c3.58,0,5.38-1.39,5.38-4.18,.09-1.14-.39-2.24-1.29-2.95-1.24-.72-2.66-1.04-4.09-.93h-23.01c-2.43,.2-4.84-.53-6.74-2.06-1.49-1.47-2.28-3.5-2.17-5.59-.11-2.12,.68-4.19,2.17-5.7,1.89-1.55,4.31-2.3,6.74-2.09h31.41v3.88h-31.06c-1.33-.11-2.65,.23-3.77,.97-.85,.77-1.29,1.89-1.19,3.03-.1,1.09,.34,2.16,1.17,2.87,1.14,.69,2.46,1,3.78,.89h23.16c2.49-.21,4.97,.53,6.93,2.07,1.52,1.49,2.32,3.56,2.21,5.68,.11,2.17-.69,4.29-2.21,5.84-1.94,1.6-4.43,2.37-6.93,2.15h-32.07Z"/>
        <path id="Trazado_63" data-name="Trazado 63" class="cls-1" d="M554.35,101.63v-3.88h31.57c3.59,0,5.38-1.39,5.38-4.18,.09-1.14-.39-2.24-1.29-2.95-1.24-.72-2.66-1.04-4.09-.93h-23.01c-2.43,.2-4.84-.53-6.74-2.06-1.49-1.47-2.28-3.5-2.17-5.59-.11-2.12,.68-4.19,2.17-5.7,1.89-1.55,4.31-2.3,6.74-2.09h31.42v3.88h-31.07c-1.33-.11-2.65,.23-3.77,.97-.85,.77-1.29,1.89-1.19,3.03-.1,1.09,.34,2.16,1.17,2.87,1.14,.69,2.46,1,3.78,.89h23.16c2.49-.21,4.97,.53,6.93,2.07,1.52,1.49,2.32,3.56,2.21,5.68,.11,2.17-.69,4.28-2.21,5.84-1.94,1.6-4.43,2.37-6.93,2.15h-32.07Z"/>
        <path id="Trazado_64" data-name="Trazado 64" class="cls-1" d="M271.41,148.2c-4.45,.35-8.88-.85-12.54-3.4-2.83-2.55-4.32-6.27-4.05-10.07v-.31c0-9.08,5.53-13.62,16.6-13.62h26.91v3.87h-26.99c-3.29-.27-6.57,.57-9.33,2.36-2.09,1.84-3.18,4.56-2.96,7.33v.31c-.22,2.76,.87,5.46,2.96,7.27,2.77,1.79,6.05,2.62,9.33,2.35h22.81v-10.67h4.18v14.55h-26.92Z"/>
        <path id="Trazado_65" data-name="Trazado 65" class="cls-1" d="M348.54,130.85c.38,4.42-2.79,8.35-7.18,8.92l5.92,8.42h-4.92l-5.38-7.95h-27.27v7.96h-4.23v-27.4h30.77c8.19,0,12.28,3.28,12.28,9.85v.19Zm-4.17-.04v-.19c.14-1.72-.58-3.41-1.92-4.5-1.86-1.11-4.02-1.61-6.18-1.43h-26.55v11.71h26.54c2.17,.18,4.35-.27,6.27-1.31,1.3-1.02,1.99-2.64,1.83-4.28h0Z"/>
        <path id="Trazado_66" data-name="Trazado 66" class="cls-1" d="M369.75,148.2c-4.45,.35-8.88-.85-12.54-3.4-2.83-2.55-4.32-6.27-4.05-10.07v-.31c0-9.08,5.53-13.62,16.6-13.62h13.4c11.06,0,16.59,4.54,16.6,13.62v.31c.27,3.8-1.23,7.51-4.05,10.07-3.66,2.55-8.09,3.75-12.54,3.4h-13.4Zm-.08-3.88h13.59c3.29,.27,6.57-.55,9.35-2.33,2.08-1.83,3.17-4.54,2.94-7.3v-.31c.22-2.77-.86-5.48-2.94-7.33-2.77-1.8-6.06-2.64-9.35-2.36h-13.59c-3.29-.27-6.58,.56-9.35,2.35-2.08,1.85-3.17,4.57-2.94,7.35v.31c-.23,2.76,.86,5.47,2.94,7.3,2.78,1.77,6.07,2.59,9.35,2.32h0Z"/>
        <path id="Trazado_67" data-name="Trazado 67" class="cls-1" d="M423.06,148.2c-6.33,0-10.93-1.36-13.81-4.07-2.88-2.72-4.32-7.09-4.32-13.11v-10.19h4.23v10.16c-.37,3.72,.76,7.43,3.15,10.3,2.1,2.03,5.66,3.05,10.68,3.05h7.64c3.9,.37,7.8-.73,10.93-3.08,2.46-2.82,3.65-6.53,3.28-10.26v-10.16h4.18v10.19c0,6-1.49,10.37-4.48,13.09-2.98,2.73-7.66,4.09-14.04,4.09h-7.44Z"/>
        <path id="Trazado_68" data-name="Trazado 68" class="cls-1" d="M455.48,148.2v-27.4h30.65c8.19,0,12.28,3.23,12.28,9.7v.19c.2,2.73-.9,5.39-2.98,7.18-2.76,1.79-6.03,2.63-9.32,2.36h-26.42v7.96h-4.23Zm4.23-11.8h26.47c2.16,.18,4.32-.28,6.22-1.32,1.3-1.03,1.99-2.65,1.84-4.31v-.19c.14-1.71-.56-3.39-1.88-4.48-1.87-1.1-4.03-1.59-6.18-1.41h-26.46v11.72Z"/>
      </g>
    </g>
  </g>
</svg>