<svg width="472" height="89" viewBox="0 0 472 89" fill="none" xmlns="http://www.w3.org/2000/svg">
<path d="M256.6 81.0923V16.1387C256.6 16.1387 272.023 15.7726 279.389 16.4107C292.368 17.5403 302.64 23.5022 307.13 36.2837C311.327 48.1971 310.058 59.7758 301.58 69.7542C296.711 75.5174 290.154 78.3205 282.946 80.0463C279.362 80.7929 275.704 81.1194 272.044 81.0191C266.966 81.1132 261.877 81.0923 256.6 81.0923ZM267.868 71.3022C271.016 71.3022 274.164 71.5114 277.217 71.3022C286.135 70.57 292.955 66.4804 296.26 57.8303C298.549 51.8966 298.598 45.336 296.397 39.3693C294.834 34.8713 291.682 31.094 287.531 28.7424C281.372 25.0816 274.636 25.6046 267.868 25.6987V71.3022Z" fill="#10212B"/>
<path d="M401.036 55.0061C408.748 64.1791 416.994 72.5782 424.475 81.6361C419.873 81.6361 415.27 81.6361 410.668 81.6361C410.338 81.5904 410.036 81.4269 409.818 81.1759C402.746 73.007 395.727 64.085 388.592 55.9789C388.025 55.3304 387.427 55.5919 385.57 55.571V81.5524H374.165V16.8498C374.299 16.7797 374.445 16.7337 374.595 16.7139C382.59 16.8603 390.596 16.7138 398.57 17.2787C403.483 17.5173 408.14 19.5371 411.664 22.9582C420.95 32.0057 419.114 50.017 403.533 54.3368C402.798 54.5041 402.022 54.7342 401.036 55.0061ZM385.665 26.0019V46.7955C388.907 46.7955 392.883 46.9419 396.283 46.7955C397.872 46.7749 399.438 46.4184 400.878 45.7495C402.69 44.9274 404.101 43.4229 404.802 41.5657C405.658 39.5501 405.993 37.353 405.778 35.1749C405.756 32.8838 404.864 30.6861 403.281 29.0247C401.698 27.3634 399.542 26.3617 397.248 26.2216C393.395 25.9079 389.527 25.8345 385.665 26.0019Z" fill="#10212B"/>
<path d="M165.359 68.7288C161.855 64.7124 158.308 60.7378 154.867 56.6691C153.88 55.4976 154.017 55.3721 151.803 55.5603V80.977H139.873C139.873 59.399 139.758 37.7687 139.758 16.2012H140.933C148.876 16.3476 156.808 16.2011 164.729 16.6927C169.241 17.0395 173.507 18.8804 176.848 21.9225C179.483 24.2366 181.4 27.252 182.376 30.6147C183.352 33.9773 183.345 37.5476 182.356 40.9065C181.676 44.1501 180.054 47.1228 177.692 49.4548C175.33 51.7868 172.333 53.3752 169.073 54.0228C168.559 54.1483 167.468 54.2738 166.639 54.4935L190.362 81.1025H187.025C183.983 81.1025 179.03 81.1025 175.998 81.1025L165.359 68.7288ZM151.352 46.7848C155.78 46.7848 159.557 47.0044 163.302 46.7848C168.674 46.4083 170.972 43.647 171.528 38.3231C171.99 33.9719 171.119 28.4075 166.23 26.8176C161.561 25.2591 156.787 25.7716 151.352 25.667V46.7848Z" fill="#10212B"/>
<path d="M360.41 16.2227V25.5735H329.982V41.6497H354.891V51.1261H329.992V71.3339H362.707V80.9775H318.566V16.2227H360.41Z" fill="#10212B"/>
<path d="M203.656 81.0505C199.983 81.0505 195.566 81.0505 191.495 81.0505L222.972 9.30859L254.69 81.0505C250.598 81.0505 246.296 81.0505 242.571 81.0505C242.451 81.0728 242.326 81.0484 242.223 80.9824C242.119 80.9163 242.045 80.8135 242.015 80.6948C239.718 75.4651 237.598 69.9947 235.374 64.6918C234.975 63.7504 234.996 63.8864 234.996 63.8864L224.43 63.9178V53.9394H231.156L223.024 34.0663L214.872 53.9394H221.283V63.9178H217.526C215.711 63.9178 212.574 63.9178 210.759 63.9178" fill="#10212B"/>
<path d="M84.5784 16.1699H131.049V25.5835H113.925V81.0189H102.478V25.5835H84.5469C84.5469 22.5502 84.5469 19.6948 84.5469 16.8393" fill="#10212B"/>
<path d="M11.2897 80.9984H0V16.2227H11.2897V80.9984Z" fill="#10212B"/>
<path d="M64.2237 56.6906C68.0009 53.0821 71.6312 49.4421 75.4714 45.7813C75.4714 60.2991 75.7547 74.4299 75.7547 89C61.0656 69.9846 46.1141 51.2307 31.4879 32.3095C27.7212 35.8866 24.1433 39.4637 20.1982 43.1769V0C34.9434 18.9038 49.6185 37.8007 64.2237 56.6906Z" fill="#008BFF"/>
<path d="M31.4984 36.9111V81.3327H20.3032V79.7952C20.3032 69.618 20.3032 57.9662 20.1982 47.7891" fill="#10212B"/>
<path d="M65.3896 51.1897C65.1168 51.4512 64.5082 51.9009 64.0256 52.3089C64.0256 37.5296 63.9102 22.7293 63.9102 7.9082H75.693C75.693 7.9082 75.693 31.4421 75.7559 41.4728" fill="#10212B"/>
<path d="M426.436 66.1352L434.116 59.7968C436.046 63.3425 442.51 72.9653 449.13 72.9653C456.076 72.9653 460.179 68.3004 460.179 63.3426C460.179 57.3283 453.201 53.6884 445.983 50.425C438.764 47.1616 428.356 42.5072 428.356 32.2882C428.356 21.6405 438.218 13.618 450.578 14.7895C460.493 15.7308 467.198 19.5486 470.86 29.8721L461.322 32.8112C459.413 28.4182 455.142 24.2239 450.652 24.2239C444.975 24.2239 439.677 25.908 439.866 31.3887C440.044 36.4721 446.738 38.292 454.261 41.6809C464.05 46.1994 472.381 51.994 471.657 63.1438C470.849 75.3501 460.504 82.745 447.913 82.1069C437.809 81.5735 429.971 73.6452 426.436 66.1352Z" fill="#10212B"/>
</svg>
