<?xml version="1.0" encoding="UTF-8"?>
<svg id="Capa_2" data-name="Capa 2" xmlns="http://www.w3.org/2000/svg" viewBox="0 0 751.53 570.28">
  <g id="Capa_1-2" data-name="Capa 1">
    <g>
      <g>
        <path d="M42.38,362.96l-19.63,103.09H9.15l19.63-103.09h13.59Z"/>
        <path d="M47.13,466.05l10.11-53.57c1.52-7.48,2.53-14.22,3.4-20.43h12.3l-2.11,15.41h.31c6.91-10.87,17.96-17.24,29.88-17.24,8.81,0,20.7,4.5,20.7,22.4,0,2.96-.61,8.08-1.28,11.88l-7.95,41.57h-13.59l7.76-40.93c.46-2.7,.97-6.28,.97-9.2,0-8.28-3.15-14.51-13.14-14.51s-23.9,10.89-27.48,30.54l-6.28,34.09h-13.59Z"/>
        <path d="M151.56,392.05l7.99,41.83c1.49,8.56,2.66,14.62,3.22,18.25h.4c1.62-3.53,3.59-8.33,8.34-17.19l24.05-42.89h15.27l-43.99,74.01h-13.53l-15.61-74.01h13.84Z"/>
        <path d="M268.25,461.62c-5.81,3.27-15.94,6.27-26.93,6.27-21.07,0-30.78-13.82-30.78-31.05,0-22.99,18.31-46.63,43.15-46.63,15.18,0,24.05,8.43,24.05,19.84,0,19.87-23.74,24.24-53.57,23.53-.69,3.51,.07,9.82,1.87,13.54,3.42,6.71,9.93,9.91,18.07,9.91,9.77,0,17.25-2.78,22.21-5.41l1.95,10.01Zm-16.42-61.14c-13.83,0-23.52,12.86-26.21,22.78,22.52,.31,38.86-1.89,38.86-13.09,0-6.25-5.35-9.69-12.65-9.69Z"/>
        <path d="M285.74,466.05l8.9-46.78c1.82-9.67,3-19.96,3.93-27.23h12c-.72,5.56-1.44,11.12-2.32,16.79h.46c4.94-10.46,13.34-18.62,24.12-18.62,1.32,0,3.06,.1,4.17,.31l-2.65,13.2c-1.07-.21-2.35-.31-4.09-.31-11.55,0-21.71,13.2-25.24,32.27l-5.68,30.38h-13.59Z"/>
        <path d="M339.01,452.45c3.9,2.29,11.18,5.02,17.56,5.02,8.79,0,14.57-5.43,14.57-11.73,0-5.41-2.39-8.86-11.15-13.23-9.7-4.77-14.74-11.3-14.74-19.19,0-13.17,12.01-23.11,28.32-23.11,7.38,0,13.88,1.99,16.86,3.97l-3.82,10.18c-2.68-1.53-7.86-3.73-14.25-3.73-7.7,0-13.47,4.66-13.47,10.8,0,5.27,3.63,8.5,11.25,12.35,9,4.47,15.09,10.76,15.09,19.49,0,15.5-13.5,24.62-29.89,24.62-8.72,0-16.3-2.59-20.14-5.48l3.82-9.97Z"/>
        <path d="M400.15,466.05l14.12-74.01h13.59l-14.12,74.01h-13.59Zm16.45-95.24c0-5.27,4.01-8.97,8.84-8.97s8.1,3.4,8.21,8.33c-.1,5.12-3.8,8.92-9.09,8.92-4.7,0-7.96-3.6-7.96-8.28Z"/>
        <path d="M515.31,423.17c0,24.4-18.65,44.72-44.31,44.72-20.12,0-32.62-14.2-32.62-32.16,0-25.95,19.11-45.52,43.95-45.52,21.6,0,32.98,15.31,32.98,32.95Zm-62.79,12.26c0,13.1,8.6,21.8,20.32,21.8,15.32,0,28.33-15.3,28.33-33.83,0-8.91-4.83-22.53-20.12-22.53-17.12,0-28.53,17.03-28.53,34.56Z"/>
        <path d="M525.73,466.05l10.11-53.57c1.52-7.48,2.53-14.22,3.4-20.43h12.3l-2.11,15.41h.31c6.91-10.87,17.96-17.24,29.88-17.24,8.81,0,20.7,4.5,20.7,22.4,0,2.96-.61,8.08-1.28,11.88l-7.95,41.57h-13.59l7.76-40.93c.46-2.7,.97-6.28,.97-9.2,0-8.28-3.15-14.51-13.14-14.51s-23.9,10.89-27.48,30.54l-6.28,34.09h-13.59Z"/>
        <path d="M672.66,461.62c-5.81,3.27-15.94,6.27-26.93,6.27-21.07,0-30.78-13.82-30.78-31.05,0-22.99,18.31-46.63,43.15-46.63,15.18,0,24.05,8.43,24.05,19.84,0,19.87-23.74,24.24-53.57,23.53-.69,3.51,.07,9.82,1.87,13.54,3.42,6.71,9.93,9.91,18.07,9.91,9.77,0,17.25-2.78,22.21-5.41l1.95,10.01Zm-16.42-61.14c-13.83,0-23.52,12.86-26.21,22.78,22.52,.31,38.86-1.89,38.86-13.09,0-6.25-5.35-9.69-12.65-9.69Z"/>
        <path d="M690.96,452.45c3.9,2.29,11.18,5.02,17.56,5.02,8.79,0,14.57-5.43,14.57-11.73,0-5.41-2.39-8.86-11.15-13.23-9.7-4.77-14.74-11.3-14.74-19.19,0-13.17,12.01-23.11,28.32-23.11,7.38,0,13.88,1.99,16.86,3.97l-3.82,10.18c-2.68-1.53-7.86-3.73-14.25-3.73-7.7,0-13.47,4.66-13.47,10.8,0,5.27,3.63,8.5,11.25,12.35,9,4.47,15.09,10.76,15.09,19.49,0,15.5-13.5,24.62-29.89,24.62-8.72,0-16.3-2.59-20.14-5.48l3.82-9.97Z"/>
      </g>
      <g>
        <path d="M6.37,549.95c4.75,2.73,11.63,4.96,19.22,4.96,4.75,0,9.2-1.62,9.2-5.46,0-3.13-3.24-4.96-9.61-7.69-6.98-2.93-16.49-8.19-16.49-18.91,0-14.77,13.76-23.16,30.14-23.16,10.11,0,15.47,1.92,19.22,3.64l-5.77,14.97c-2.33-1.21-8.39-3.44-14.97-3.24-6.57,0-9.31,2.33-9.31,4.65,0,3.54,5.77,5.76,10.72,7.99,9,3.94,15.58,9.41,15.58,18.51,0,17.19-15.27,24.07-31.05,24.07-11.63,0-19.32-3.04-23.26-5.77l6.37-14.56Z"/>
        <path d="M135.63,530.73c0,11.73-4.25,21.64-11.53,28.62-7.18,6.88-17.3,10.92-29.23,10.92-18.41,0-31.96-11.33-31.96-30.75,0-11.83,4.45-21.85,11.83-28.83,7.38-6.98,17.5-11.02,29.03-11.02,18.61,0,31.86,10.92,31.86,31.05Zm-46.02-11.02c-4.65,4.65-7.28,11.73-7.28,18.61,0,10.92,5.26,17.19,15.17,17.19,4.45,0,8.5-1.92,11.63-5.06,4.45-4.45,7.08-11.43,7.08-18.61,0-9.81-3.84-17.4-14.46-17.4-4.75,0-8.9,2.02-12.14,5.26Z"/>
        <path d="M152.21,500.89h18l-9.81,52.39h28.93l-2.93,15.78h-47.03l12.85-68.17Z"/>
        <path d="M225.84,500.89l-12.85,68.17h-18l12.85-68.17h18Z"/>
        <path d="M238.69,502c6.98-1.21,14.16-1.62,21.44-1.62,10.92,0,20.23,1.72,27.21,6.47,7.08,4.85,11.73,12.04,11.73,23.97s-4.96,22.15-13.76,28.93c-8.8,6.78-20.13,9.81-37.52,9.81-10.82,0-18.91-.91-21.75-1.52l12.64-66.05Zm8.29,52.9c1.21,.2,3.03,.3,6.07,.3,7.59,0,14.87-2.23,19.32-6.57,4.45-4.25,6.78-10.22,6.78-17.19,0-12.04-7.59-16.69-18.91-16.69-2.73,0-4.35,.2-5.66,.4l-7.59,39.75Z"/>
        <path d="M323.74,552.27l-7.38,16.79h-19.82l34.09-68.17h24.17l9.71,68.17h-19.42l-1.21-16.79h-20.13Zm19.12-13.76l-1.21-12.04c-.4-3.84-.91-8.8-1.42-12.74h-.2c-1.82,3.94-3.64,8.9-5.56,12.85l-5.36,11.93h13.76Z"/>
        <path d="M384.23,502.41c4.75-1.31,12.95-2.02,21.34-2.02,6.37,0,13.76,.51,19.42,3.04,5.56,2.53,9.91,7.18,9.91,15.07,0,10.21-6.37,15.37-15.58,18.61l-.1,.41c3.84,1.92,5.46,6.37,6.37,11.73,1.11,6.88,1.82,16.89,3.34,19.82h-18.61c-.71-2.02-1.62-6.78-2.63-15.88-.91-7.79-3.84-9.61-9.81-9.61h-3.64l-4.85,25.49h-17.9l12.74-66.65Zm12.54,27.91h6.27c7.08,0,13.05-2.93,13.05-8.9,0-5.36-5.26-6.88-10.62-6.88-2.83,0-4.55,.2-5.76,.4l-2.93,15.37Z"/>
        <path d="M467.56,500.89l-12.85,68.17h-18l12.85-68.17h18Z"/>
        <path d="M490.92,552.27l-7.38,16.79h-19.82l34.09-68.17h24.17l9.71,68.17h-19.42l-1.21-16.79h-20.13Zm19.12-13.76l-1.21-12.04c-.4-3.84-.91-8.8-1.42-12.74h-.2c-1.82,3.94-3.64,8.9-5.56,12.85l-5.36,11.93h13.76Z"/>
        <path d="M543.01,549.95c4.75,2.73,11.63,4.96,19.22,4.96,4.75,0,9.2-1.62,9.2-5.46,0-3.13-3.24-4.96-9.61-7.69-6.98-2.93-16.49-8.19-16.49-18.91,0-14.77,13.76-23.16,30.14-23.16,10.11,0,15.47,1.92,19.22,3.64l-5.77,14.97c-2.33-1.21-8.39-3.44-14.97-3.24-6.57,0-9.31,2.33-9.31,4.65,0,3.54,5.77,5.76,10.72,7.99,9,3.94,15.58,9.41,15.58,18.51,0,17.19-15.27,24.07-31.05,24.07-11.63,0-19.32-3.04-23.26-5.77l6.37-14.56Z"/>
        <path d="M618.82,559.01c2.64,1.56,6.42,2.81,10.6,2.81,2.96,0,5.83-1.16,5.83-3.8,0-1.95-1.8-3.17-5.57-4.81-4.24-1.83-9.22-4.83-9.22-10.59,0-8.16,7.56-12.84,16.49-12.84,5.47,0,8.52,1.12,10.53,2.1l-3.02,7.7c-1.3-.7-4.63-1.97-8.31-1.87-3.96,0-5.76,1.65-5.76,3.25,0,2.22,3.06,3.55,6.17,4.97,5.16,2.29,8.72,5.35,8.72,10.49,0,9.19-8.12,13.33-17.09,13.33-6.17,0-10.51-1.66-12.68-3.23l3.31-7.51Z"/>
        <path d="M648.95,564.6c0-3.51,2.49-6.37,6.29-6.37,2.94,0,5.18,2.1,5.18,5.26,0,3.59-2.59,6.16-6.34,6.16-3.04,0-5.12-2.12-5.12-5.05Z"/>
        <path d="M677.58,559.06l-4.6,10h-10.2l19.64-38.6h12.35l5.7,38.6h-9.99l-.91-10h-12Zm11.44-7.13l-.9-7.63c-.24-2.11-.54-4.89-.82-7.09h-.11c-1.03,2.21-2.04,4.89-3.15,7.12l-3.61,7.6h8.6Z"/>
        <path d="M704.61,564.6c0-3.51,2.49-6.37,6.29-6.37,2.94,0,5.18,2.1,5.18,5.26,0,3.59-2.59,6.16-6.34,6.16-3.04,0-5.12-2.12-5.12-5.05Z"/>
        <path d="M722.87,559.01c2.64,1.56,6.42,2.81,10.6,2.81,2.96,0,5.83-1.16,5.83-3.8,0-1.95-1.8-3.17-5.57-4.81-4.24-1.83-9.22-4.83-9.22-10.59,0-8.16,7.56-12.84,16.49-12.84,5.47,0,8.52,1.12,10.53,2.1l-3.02,7.7c-1.3-.7-4.63-1.97-8.31-1.87-3.96,0-5.76,1.65-5.76,3.25,0,2.22,3.06,3.55,6.17,4.97,5.16,2.29,8.72,5.35,8.72,10.49,0,9.19-8.12,13.33-17.09,13.33-6.17,0-10.51-1.66-12.68-3.23l3.31-7.51Z"/>
      </g>
      <g>
        <g>
          <path d="M343.68,273.72c-15.55-2.52-29.38-8.28-40.3-15.4,0,0,0,0,0,0l-5.67,12.26c-4.86,10.51,.12,23,10.93,27.14,8.37,3.2,18.32,5.75,29.07,7.13,0,0,0,0,0,0l5.97-31.13s0,0,0,0Z"/>
          <path d="M427.74,68.59l-5.93,30.92s0,0,0,0c12.36,2.56,22.11,7.19,27.22,10.24,0,0,0,0,0,0l5.05-11.73c4.64-10.76-1.21-23.15-12.48-26.39-4.16-1.2-8.79-2.25-13.87-3.04,0,0,0,0,0,0Z"/>
          <path d="M407.38,174.81l-36.92-21.58c-2.72-1.59-5.17-3.65-7.06-6.17-3.57-4.78-5.44-10.15-5.44-16.63,0-9.93,6.42-20.31,18.29-26.65,0,0,0,0,0,0l6.6-34.41s0,0,0,0c-35.45,7.41-62.9,31.75-62.9,68.47,0,23.87,15.32,40.74,39.4,54.17l35.43,21.01c5.12,3.04,9.39,7.47,11.7,12.96,1.5,3.56,2.2,7.32,2.2,11.37,0,14.65-7.99,24.87-19.21,30.95,0,0,0,0,0,0l-6.69,34.89s0,0,0,0c39.16-8.4,64.22-35.02,64.22-70.57,0-26.95-14.07-43.94-39.62-57.8Z"/>
        </g>
        <g>
          <path d="M404.56,43.19h-8.51s0,0,0,0l-16.98,88.59c-1.86,9.68,2.66,19.47,11.24,24.33l11.67,6.63s0,0,0,0l19.09-99.59c1.99-10.36-5.95-19.96-16.5-19.96Z"/>
          <path d="M375.39,210.82l-10.35-5.82s0,0,0,0l-21.6,112.71c-1.99,10.4,5.98,20.04,16.56,20.04h8.44s0,0,0,0l19.25-100.45c2.02-10.55-2.93-21.22-12.3-26.48Z"/>
        </g>
        <circle cx="414.89" cy="17.42" r="17.42"/>
      </g>
    </g>
  </g>
</svg>