<svg width="371" height="136" viewBox="0 0 371 136" fill="none" xmlns="http://www.w3.org/2000/svg">
<g clip-path="url(#clip0_6_581)">
<path d="M198.866 17.076L185.705 0.0704956L172.548 17.0716L185.735 29.7332L198.866 17.076Z" fill="#FFD631"/>
<path d="M190.01 33.8392L201.549 44.9236L230.568 17.0716L217.359 0H193.187L206.828 17.6311L190.01 33.8392Z" fill="#FFD631"/>
<path d="M169.882 45.0205L181.466 33.848L164.582 17.6311L178.228 0H154.104L140.895 17.076L169.882 45.0205Z" fill="#FFD631"/>
<path d="M197.271 49.0252L185.744 37.9584L174.147 49.1353L185.63 60.1977L197.271 49.0252Z" fill="#FFD631"/>
<path d="M235.516 0H224.893L238.538 17.6355L185.797 68.2467L132.932 17.6311L146.569 0H133.554L120.419 17.5386L185.982 83.7411L250.58 17.5386L235.516 0Z" fill="#FFD631"/>
<path d="M6.07604 130.237V135.348H0V107.8H20.8322V112.871H6.07604V119.039H19.1094V124.378H6.07604V130.237Z" fill="white"/>
<path d="M26.4365 107.936H32.7064V135.37H26.4365V107.936Z" fill="white"/>
<path d="M44.8635 116.404V135.388H39.3867V107.84H46.5863L59.3376 124.973V107.84H64.6558V135.388H59.3376L44.8635 116.404Z" fill="white"/>
<path d="M68.8594 135.348L81.8134 107.936H88.1229L100.901 135.348H94.807L92.0091 129.277H77.5747L74.5741 135.348H68.8594ZM85.0387 113.1L80.2404 123.704H89.718L85.0783 113.1H85.0387Z" fill="white"/>
<path d="M110.766 116.404V135.388H105.307V107.84H112.502L125.28 124.973V107.84H130.554V135.388H125.24L110.766 116.404Z" fill="white"/>
<path d="M150.434 135.423C142.437 135.423 135.96 129.202 135.96 121.514C135.96 113.906 142.437 107.606 150.434 107.606C152.966 107.587 155.459 108.235 157.662 109.483C159.865 110.731 161.701 112.536 162.987 114.717C160.546 115.946 160.343 116.06 157.629 117.329C156.872 116.106 155.812 115.098 154.552 114.403C153.291 113.709 151.873 113.351 150.434 113.364C145.755 113.364 141.957 117.056 141.957 121.51C141.957 125.964 145.755 129.656 150.434 129.656C151.942 129.681 153.429 129.297 154.738 128.547C156.046 127.796 157.127 126.706 157.867 125.391C160.586 126.735 160.665 126.889 163.225 128.004C161.96 130.279 160.104 132.169 157.852 133.476C155.6 134.782 153.037 135.454 150.434 135.423Z" fill="white"/>
<path d="M169.107 107.936H175.386V135.37H169.107V107.936Z" fill="white"/>
<path d="M179.906 135.348L192.86 107.936H199.157L211.934 135.348H205.854L203.052 129.277H188.622L185.621 135.348H179.906ZM196.099 113.1L191.3 123.704H200.774L196.138 113.1H196.099Z" fill="white"/>
<path d="M216.292 135.154V107.8H222.461V130.083H237.098V135.154H216.292Z" fill="white"/>
<path d="M255.04 135.348L267.994 107.936H274.312L287.068 135.33H280.988L278.19 129.259H263.76L260.759 135.33L255.04 135.348ZM271.233 113.1L266.439 123.704H275.912L271.272 113.1H271.233Z" fill="white"/>
<path d="M299.026 120.977L289.831 107.936H297.105L302.701 116.677L308.499 107.936H315.377L306.226 121.017L316.184 135.348H308.693L302.701 125.933L296.092 135.348H289.042L299.026 120.977Z" fill="white"/>
<path d="M326.137 130.237H342.25V135.308H320.061V107.8H340.888V112.871H326.137V119.039H339.17V124.378H326.137V130.237Z" fill="white"/>
<path d="M353.049 127.202C353.688 130.815 357.046 131.312 359.368 131.312C361.571 131.312 364.924 130.7 364.924 127.894C364.924 122.052 347.934 125.819 347.934 115.558C347.934 109.91 353.45 107.258 358.605 107.258C364.562 107.258 370.061 109.756 370.061 116.096L363.946 115.254C363.188 112.065 360.267 111.95 358.31 111.95C356.354 111.95 353.992 112.756 353.992 115.06C353.992 117.096 355.349 117.558 362.509 119.21C364.629 119.708 370.982 120.973 370.982 127.202C370.982 132.238 366.907 136.013 359.086 136.013C352.688 136.013 346.934 133.017 346.934 126.255L353.049 127.202Z" fill="white"/>
</g>
<defs>
<clipPath id="clip0_6_581">
<rect width="371" height="136" fill="white"/>
</clipPath>
</defs>
</svg>
